<svg width="1876" height="1876" viewBox="0 0 1876 1876" xmlns="http://www.w3.org/2000/svg">
  <defs>
    <mask id="cut" x="0" y="0" width="1876" height="1876" maskUnits="userSpaceOnUse">
      <rect width="1876" height="1876" fill="white"/>
      <circle cx="849.496" cy="862.222" r="114.408" fill="black"/>
      <rect x="798.211" y="838.549" width="98.6275" height="276.157" rx="49.3137" fill="black"/>
    </mask>
  </defs>

  <path
    fill="#fff"
    mask="url(#cut)"
    d="M622.256 359.078C572.269 359.078 531.782 399.565 531.782 449.552H1300.81C1375.77 449.552 1436.52 510.306 1436.52 585.264V1173.35C1486.51 1173.35 1527 1132.86 1527 1082.87V449.552C1527 399.565 1486.51 359.078 1436.52 359.078H622.256ZM441.308 540.026C391.321 540.026 350.834 580.514 350.834 630.501V1263.82C350.834 1313.81 391.321 1354.29 441.308 1354.29H577.019V1490.01C577.019 1502 581.785 1513.51 590.269 1521.99C598.753 1530.48 610.259 1535.24 622.256 1535.24C629.797 1535.23 637.214 1533.33 643.834 1529.72C650.454 1526.11 656.066 1520.9 660.16 1514.57L780.498 1354.29H1255.58C1305.56 1354.29 1346.05 1313.81 1346.05 1263.82V630.501C1346.05 580.514 1305.56 540.026 1255.58 540.026H441.308Z"
  />
</svg>
