<svg width="27" height="36" viewBox="0 0 27 36" fill="none" xmlns="http://www.w3.org/2000/svg">
<path d="M1 32L0.5 32L0.5 32.5H1V32ZM26.3536 32.3536C26.5488 32.1583 26.5488 31.8417 26.3536 31.6464L23.1716 28.4645C22.9763 28.2692 22.6597 28.2692 22.4645 28.4645C22.2692 28.6597 22.2692 28.9763 22.4645 29.1716L25.2929 32L22.4645 34.8284C22.2692 35.0237 22.2692 35.3403 22.4645 35.5355C22.6597 35.7308 22.9763 35.7308 23.1716 35.5355L26.3536 32.3536ZM1 32.5H26V31.5H1V32.5ZM0.5 0L0.5 32L1.5 32L1.5 0L0.5 0Z" fill="#808080"/>
</svg>
