<svg width="27" height="64" viewBox="0 0 27 64" fill="none" xmlns="http://www.w3.org/2000/svg">
<path d="M26.3536 31.9798C26.5488 31.7845 26.5488 31.4679 26.3536 31.2727L23.1716 28.0907C22.9763 27.8954 22.6597 27.8954 22.4645 28.0907C22.2692 28.286 22.2692 28.6025 22.4645 28.7978L25.2929 31.6262L22.4645 34.4547C22.2692 34.6499 22.2692 34.9665 22.4645 35.1618C22.6597 35.357 22.9763 35.357 23.1716 35.1618L26.3536 31.9798ZM0.5 0V31.6262H1.5V0H0.5ZM1 32.1262H26V31.1262H1V32.1262ZM1.5 64V31.6262H0.5V64H1.5Z" fill="#808080"/>
</svg>
