<svg width="600" height="600" viewBox="0 0 600 600" fill="none" xmlns="http://www.w3.org/2000/svg">
<path fill-rule="evenodd" clip-rule="evenodd" d="M600 0H0V600H600V0ZM300 374C341.421 374 375 340.421 375 299C375 257.579 341.421 224 300 224C258.579 224 225 257.579 225 299C225 340.421 258.579 374 300 374Z" fill="#7E57C2"/>
<path d="M75.6221 113.238C64.7903 120.724 54.5594 128.681 45 137.037V44H300.181H555V136.722C545.544 128.481 535.435 120.618 524.739 113.207C515.001 106.459 504.777 100.086 494.118 94.1414C484.268 88.6482 474.047 83.5217 463.496 78.8056C453.57 74.3689 443.351 70.2953 432.874 66.621C422.892 63.1205 412.675 59.9824 402.253 57.2381C369.919 48.7244 335.605 44 300.181 44C264.756 44 230.442 49.1622 198.108 57.5955C187.686 60.314 177.468 63.4243 167.486 66.8967C157.01 70.5411 146.792 74.5843 136.866 78.9917C126.315 83.677 116.094 88.774 106.244 94.2412C95.5853 100.157 85.3608 106.507 75.6221 113.238Z" fill="white"/>
<path d="M555 461.777C545.544 470.018 535.435 477.869 524.739 485.261C515.001 491.992 504.777 498.341 494.118 504.257C484.268 509.724 474.047 514.821 463.496 519.507C453.57 523.915 443.351 527.958 432.874 531.603C422.892 535.075 412.675 538.185 402.253 540.904C369.919 549.337 335.605 553.999 300.18 553.999C264.756 553.999 230.442 549.337 198.108 540.904C187.686 538.185 177.468 535.075 167.486 531.602C157.01 527.958 146.792 523.915 136.866 519.507C126.315 514.822 116.094 509.725 106.244 504.258C95.5853 498.342 85.3608 491.992 75.6221 485.261C64.7903 477.775 54.5594 469.818 45 461.462V554H555V461.777Z" fill="white"/>
<path fill-rule="evenodd" clip-rule="evenodd" d="M505 299.5C505 223.25 411.657 147 300 147C188.343 147 95 223.25 95 299.5C95 375.75 188.343 452 300 452C411.657 452 505 375.75 505 299.5ZM300.18 374C342.46 374 375 340.78 375 298.5C375 256.22 342.46 223.627 300.18 223.627C257.9 223.627 225 256.22 225 298.5C225 340.78 257.9 374 300.18 374Z" fill="white"/>
<path d="M340.925 237.301C340.819 238.302 340.766 239.366 340.766 240.494C340.766 242.637 340.953 244.543 341.327 246.212C341.701 247.882 342.274 249.29 343.046 250.436C343.844 251.582 344.841 252.467 346.037 253.09C347.258 253.688 348.691 253.987 350.335 253.987C351.98 253.987 353.4 253.688 354.596 253.09C355.462 252.649 356.214 252.076 356.854 251.372C356.033 250.408 355.188 249.466 354.319 248.545C353.516 249.881 352.188 250.548 350.335 250.548C349.388 250.548 348.578 250.374 347.906 250.025C347.233 249.651 346.685 249.128 346.261 248.455C345.837 247.757 345.526 246.935 345.327 245.988C345.152 245.016 345.065 243.932 345.065 242.736V240.23C343.72 239.209 342.339 238.232 340.925 237.301Z" fill="white"/>
<path d="M321.391 228.168C323.822 228.9 326.201 229.751 328.521 230.715V250.062H334.838V253.539H317.008V250.062H324.335V230.514H324.036L317.98 236.98L315.401 234.663L321.391 228.168Z" fill="white"/>
<path d="M266.23 232.891C269.897 231.055 273.736 229.511 277.716 228.29V250.062H284.033V253.539H266.203V250.062H273.529V230.514H273.23L267.175 236.98L264.596 234.663L266.23 232.891Z" fill="white"/>
<path d="M242.433 251.631C243.021 252.218 243.685 252.704 244.426 253.09C245.647 253.688 247.08 253.987 248.725 253.987C250.369 253.987 251.79 253.688 252.986 253.09C254.207 252.467 255.204 251.582 255.976 250.436C256.774 249.29 257.359 247.882 257.733 246.212C258.107 244.543 258.294 242.637 258.294 240.494C258.294 239.47 258.25 238.498 258.163 237.579C256.738 238.53 255.348 239.528 253.995 240.572V242.736C253.995 245.128 253.584 247.035 252.762 248.455C251.964 249.851 250.619 250.548 248.725 250.548C247.778 250.548 246.968 250.374 246.295 250.025C245.755 249.725 245.295 249.328 244.915 248.835C244.065 249.746 243.237 250.678 242.433 251.631Z" fill="white"/>
<path d="M246.078 352.382C245.257 351.542 244.456 350.682 243.675 349.803L245.847 347.449H252.313V358.093C250.872 356.914 249.476 355.684 248.127 354.403V350.514H247.828L246.078 352.382Z" fill="white"/>
<path d="M279.666 372.28C280.325 371.768 280.896 371.153 281.379 370.436C282.176 369.29 282.762 367.882 283.136 366.212C283.509 364.543 283.696 362.637 283.696 360.494C283.696 358.375 283.509 356.482 283.136 354.812C282.762 353.118 282.176 351.697 281.379 350.551C280.606 349.405 279.61 348.533 278.388 347.934C277.192 347.311 275.772 347 274.127 347C272.483 347 271.05 347.311 269.829 347.934C268.633 348.533 267.636 349.405 266.839 350.551C266.066 351.697 265.493 353.118 265.119 354.812C264.745 356.482 264.559 358.375 264.559 360.494C264.559 362.637 264.745 364.543 265.119 366.212C265.148 366.339 265.177 366.464 265.208 366.588C266.944 367.49 268.72 368.327 270.533 369.095C270.358 368.899 270.198 368.686 270.053 368.455C269.63 367.757 269.318 366.935 269.119 365.988C268.944 365.016 268.857 363.932 268.857 362.736V358.251C268.857 357.055 268.944 355.983 269.119 355.036C269.318 354.064 269.63 353.242 270.053 352.569C270.477 351.872 271.025 351.348 271.698 350.999C272.371 350.626 273.18 350.439 274.127 350.439C276.021 350.439 277.367 351.149 278.164 352.569C278.987 353.965 279.398 355.859 279.398 358.251V362.736C279.398 365.128 278.987 367.035 278.164 368.455C277.382 369.824 276.073 370.521 274.236 370.548C276.016 371.191 277.827 371.77 279.666 372.28Z" fill="white"/>
<path d="M328.521 369.285C324.824 370.822 320.977 372.071 317.008 373.005V370.062H324.335V350.514H324.036L317.98 356.98L315.401 354.663L322.054 347.449H328.521V369.285Z" fill="white"/>
<path d="M356.397 349.16C355.863 348.67 355.263 348.261 354.596 347.934C353.4 347.311 351.98 347 350.335 347C348.691 347 347.258 347.311 346.037 347.934C344.841 348.533 343.844 349.405 343.046 350.551C342.274 351.697 341.701 353.118 341.327 354.812C340.953 356.482 340.766 358.375 340.766 360.494C340.766 361.279 340.791 362.032 340.842 362.754C342.285 361.807 343.693 360.812 345.065 359.77V358.251C345.065 357.055 345.152 355.983 345.327 355.036C345.526 354.064 345.837 353.242 346.261 352.569C346.685 351.872 347.233 351.348 347.906 350.999C348.578 350.626 349.388 350.439 350.335 350.439C351.899 350.439 353.088 350.923 353.905 351.891C354.757 351.001 355.588 350.091 356.397 349.16Z" fill="white"/>
<path d="M374.424 307.071C373.318 307.196 372.323 307.483 371.439 307.934C370.243 308.533 369.246 309.405 368.449 310.551C367.677 311.697 367.103 313.118 366.73 314.812C366.356 316.482 366.169 318.375 366.169 320.494C366.169 322.637 366.356 324.543 366.73 326.212C367.091 327.826 367.638 329.195 368.372 330.32C369.173 328.51 369.904 326.662 370.563 324.78C370.499 324.14 370.467 323.459 370.467 322.736V318.251C370.467 317.055 370.555 315.983 370.729 315.036C370.928 314.064 371.24 313.242 371.664 312.569C372.087 311.872 372.635 311.348 373.308 310.999C373.523 310.88 373.753 310.779 373.996 310.698C374.167 309.498 374.31 308.289 374.424 307.071Z" fill="white"/>
<path d="M232.652 333.539C232.08 332.396 231.536 331.237 231.021 330.062H233.227V333.539H232.652Z" fill="white"/>
<path d="M226.91 317.932C226.074 314.523 225.471 311.023 225.119 307.449H226.91V317.932Z" fill="white"/>
<path d="M225 293.872C225.954 293.735 226.815 293.474 227.583 293.09C228.804 292.467 229.801 291.582 230.574 290.436C231.371 289.29 231.957 287.882 232.33 286.212C232.704 284.543 232.891 282.637 232.891 280.494C232.891 278.375 232.704 276.482 232.33 274.812C231.974 273.198 231.426 271.833 230.686 270.716C229.884 272.604 229.158 274.532 228.51 276.496C228.565 277.048 228.592 277.633 228.592 278.251V282.736C228.592 285.128 228.181 287.035 227.359 288.455C226.891 289.274 226.234 289.853 225.389 290.191C225.23 291.409 225.1 292.637 225 293.872Z" fill="white"/>
<path d="M369.141 271.481C369.633 272.678 370.096 273.892 370.528 275.119L368.785 276.98L366.206 274.663L369.141 271.481Z" fill="white"/>
<path d="M374.101 290.062C374.253 291.213 374.379 292.372 374.479 293.539H367.814V290.062H374.101Z" fill="white"/>
<path d="M297.698 242.176C298.047 242.524 298.658 242.699 299.53 242.699C300.402 242.699 301 242.524 301.324 242.176C301.673 241.827 301.847 241.403 301.847 240.905V240.082C301.847 239.584 301.673 239.16 301.324 238.812C301 238.463 300.402 238.288 299.53 238.288C298.658 238.288 298.047 238.463 297.698 238.812C297.374 239.16 297.213 239.584 297.213 240.082V240.905C297.213 241.403 297.374 241.827 297.698 242.176Z" fill="white"/>
<path fill-rule="evenodd" clip-rule="evenodd" d="M295.231 253.09C296.452 253.688 297.885 253.987 299.53 253.987C301.175 253.987 302.595 253.688 303.791 253.09C305.012 252.467 306.009 251.582 306.781 250.436C307.579 249.29 308.164 247.882 308.538 246.212C308.912 244.543 309.099 242.637 309.099 240.494C309.099 238.375 308.912 236.482 308.538 234.812C308.164 233.118 307.579 231.697 306.781 230.551C306.009 229.405 305.012 228.533 303.791 227.934C302.595 227.311 301.175 227 299.53 227C297.885 227 296.452 227.311 295.231 227.934C294.035 228.533 293.039 229.405 292.241 230.551C291.469 231.697 290.896 233.118 290.522 234.812C290.148 236.482 289.961 238.375 289.961 240.494C289.961 242.637 290.148 244.543 290.522 246.212C290.896 247.882 291.469 249.29 292.241 250.436C293.039 251.582 294.035 252.467 295.231 253.09ZM303.567 248.455C302.769 249.851 301.424 250.548 299.53 250.548C298.583 250.548 297.773 250.374 297.1 250.025C296.428 249.651 295.879 249.128 295.456 248.455C295.032 247.757 294.721 246.935 294.521 245.988C294.347 245.016 294.26 243.932 294.26 242.736V238.251C294.26 237.055 294.347 235.983 294.521 235.036C294.721 234.064 295.032 233.242 295.456 232.569C295.879 231.872 296.428 231.348 297.1 230.999C297.773 230.626 298.583 230.439 299.53 230.439C301.424 230.439 302.769 231.149 303.567 232.569C304.389 233.965 304.8 235.859 304.8 238.251V242.736C304.8 245.128 304.389 247.035 303.567 248.455Z" fill="white"/>
<path d="M248.725 282.699C247.853 282.699 247.242 282.524 246.893 282.176C246.569 281.827 246.407 281.403 246.407 280.905V280.082C246.407 279.584 246.569 279.16 246.893 278.812C247.242 278.463 247.853 278.288 248.725 278.288C249.597 278.288 250.195 278.463 250.519 278.812C250.868 279.16 251.042 279.584 251.042 280.082V280.905C251.042 281.403 250.868 281.827 250.519 282.176C250.195 282.524 249.597 282.699 248.725 282.699Z" fill="white"/>
<path fill-rule="evenodd" clip-rule="evenodd" d="M248.725 293.987C247.08 293.987 245.647 293.688 244.426 293.09C243.23 292.467 242.233 291.582 241.436 290.436C240.663 289.29 240.09 287.882 239.717 286.212C239.343 284.543 239.156 282.637 239.156 280.494C239.156 278.375 239.343 276.482 239.717 274.812C240.09 273.118 240.663 271.697 241.436 270.551C242.233 269.405 243.23 268.533 244.426 267.934C245.647 267.311 247.08 267 248.725 267C250.369 267 251.79 267.311 252.986 267.934C254.207 268.533 255.204 269.405 255.976 270.551C256.774 271.697 257.359 273.118 257.733 274.812C258.107 276.482 258.294 278.375 258.294 280.494C258.294 282.637 258.107 284.543 257.733 286.212C257.359 287.882 256.774 289.29 255.976 290.436C255.204 291.582 254.207 292.467 252.986 293.09C251.79 293.688 250.369 293.987 248.725 293.987ZM248.725 290.548C250.619 290.548 251.964 289.851 252.762 288.455C253.584 287.035 253.995 285.128 253.995 282.736V278.251C253.995 275.859 253.584 273.965 252.762 272.569C251.964 271.149 250.619 270.439 248.725 270.439C247.778 270.439 246.968 270.626 246.295 270.999C245.622 271.348 245.074 271.872 244.651 272.569C244.227 273.242 243.915 274.064 243.716 275.036C243.542 275.983 243.454 277.055 243.454 278.251V282.736C243.454 283.932 243.542 285.016 243.716 285.988C243.915 286.935 244.227 287.757 244.651 288.455C245.074 289.128 245.622 289.651 246.295 290.025C246.968 290.374 247.778 290.548 248.725 290.548Z" fill="white"/>
<path d="M266.203 290.062V293.539H284.033V290.062H277.716V267.449H271.249L264.596 274.663L267.175 276.98L273.23 270.514H273.529V290.062H266.203Z" fill="white"/>
<path d="M299.53 282.699C298.658 282.699 298.047 282.524 297.698 282.176C297.374 281.827 297.213 281.403 297.213 280.905V280.082C297.213 279.584 297.374 279.16 297.698 278.812C298.047 278.463 298.658 278.288 299.53 278.288C300.402 278.288 301 278.463 301.324 278.812C301.673 279.16 301.847 279.584 301.847 280.082V280.905C301.847 281.403 301.673 281.827 301.324 282.176C301 282.524 300.402 282.699 299.53 282.699Z" fill="white"/>
<path fill-rule="evenodd" clip-rule="evenodd" d="M299.53 293.987C297.885 293.987 296.452 293.688 295.231 293.09C294.035 292.467 293.039 291.582 292.241 290.436C291.469 289.29 290.896 287.882 290.522 286.212C290.148 284.543 289.961 282.637 289.961 280.494C289.961 278.375 290.148 276.482 290.522 274.812C290.896 273.118 291.469 271.697 292.241 270.551C293.039 269.405 294.035 268.533 295.231 267.934C296.452 267.311 297.885 267 299.53 267C301.175 267 302.595 267.311 303.791 267.934C305.012 268.533 306.009 269.405 306.781 270.551C307.579 271.697 308.164 273.118 308.538 274.812C308.912 276.482 309.099 278.375 309.099 280.494C309.099 282.637 308.912 284.543 308.538 286.212C308.164 287.882 307.579 289.29 306.781 290.436C306.009 291.582 305.012 292.467 303.791 293.09C302.595 293.688 301.175 293.987 299.53 293.987ZM299.53 290.548C301.424 290.548 302.769 289.851 303.567 288.455C304.389 287.035 304.8 285.128 304.8 282.736V278.251C304.8 275.859 304.389 273.965 303.567 272.569C302.769 271.149 301.424 270.439 299.53 270.439C298.583 270.439 297.773 270.626 297.1 270.999C296.428 271.348 295.879 271.872 295.456 272.569C295.032 273.242 294.721 274.064 294.521 275.036C294.347 275.983 294.26 277.055 294.26 278.251V282.736C294.26 283.932 294.347 285.016 294.521 285.988C294.721 286.935 295.032 287.757 295.456 288.455C295.879 289.128 296.428 289.651 297.1 290.025C297.773 290.374 298.583 290.548 299.53 290.548Z" fill="white"/>
<path d="M323.101 282.176C323.45 282.524 324.06 282.699 324.933 282.699C325.805 282.699 326.403 282.524 326.727 282.176C327.076 281.827 327.25 281.403 327.25 280.905V280.082C327.25 279.584 327.076 279.16 326.727 278.812C326.403 278.463 325.805 278.288 324.933 278.288C324.06 278.288 323.45 278.463 323.101 278.812C322.777 279.16 322.615 279.584 322.615 280.082V280.905C322.615 281.403 322.777 281.827 323.101 282.176Z" fill="white"/>
<path fill-rule="evenodd" clip-rule="evenodd" d="M320.634 293.09C321.855 293.688 323.288 293.987 324.933 293.987C326.577 293.987 327.998 293.688 329.194 293.09C330.415 292.467 331.411 291.582 332.184 290.436C332.981 289.29 333.567 287.882 333.941 286.212C334.315 284.543 334.501 282.637 334.501 280.494C334.501 278.375 334.315 276.482 333.941 274.812C333.567 273.118 332.981 271.697 332.184 270.551C331.411 269.405 330.415 268.533 329.194 267.934C327.998 267.311 326.577 267 324.933 267C323.288 267 321.855 267.311 320.634 267.934C319.438 268.533 318.441 269.405 317.644 270.551C316.871 271.697 316.298 273.118 315.924 274.812C315.551 276.482 315.364 278.375 315.364 280.494C315.364 282.637 315.551 284.543 315.924 286.212C316.298 287.882 316.871 289.29 317.644 290.436C318.441 291.582 319.438 292.467 320.634 293.09ZM328.969 288.455C328.172 289.851 326.826 290.548 324.933 290.548C323.986 290.548 323.176 290.374 322.503 290.025C321.83 289.651 321.282 289.128 320.858 288.455C320.435 287.757 320.123 286.935 319.924 285.988C319.749 285.016 319.662 283.932 319.662 282.736V278.251C319.662 277.055 319.749 275.983 319.924 275.036C320.123 274.064 320.435 273.242 320.858 272.569C321.282 271.872 321.83 271.348 322.503 270.999C323.176 270.626 323.986 270.439 324.933 270.439C326.826 270.439 328.172 271.149 328.969 272.569C329.792 273.965 330.203 275.859 330.203 278.251V282.736C330.203 285.128 329.792 287.035 328.969 288.455Z" fill="white"/>
<path d="M342.411 293.539V290.062H349.737V270.514H349.438L343.383 276.98L340.804 274.663L347.457 267.449H353.924V290.062H360.24V293.539H342.411Z" fill="white"/>
<path d="M240.801 330.062V333.539H258.63V330.062H252.313V307.449H245.847L239.193 314.663L241.772 316.98L247.828 310.514H248.127V330.062H240.801Z" fill="white"/>
<path d="M274.127 322.699C273.255 322.699 272.645 322.524 272.296 322.176C271.972 321.827 271.81 321.403 271.81 320.905V320.082C271.81 319.584 271.972 319.16 272.296 318.812C272.645 318.463 273.255 318.288 274.127 318.288C275 318.288 275.598 318.463 275.922 318.812C276.27 319.16 276.445 319.584 276.445 320.082V320.905C276.445 321.403 276.27 321.827 275.922 322.176C275.598 322.524 275 322.699 274.127 322.699Z" fill="white"/>
<path fill-rule="evenodd" clip-rule="evenodd" d="M274.127 333.987C272.483 333.987 271.05 333.688 269.829 333.09C268.633 332.467 267.636 331.582 266.839 330.436C266.066 329.29 265.493 327.882 265.119 326.212C264.745 324.543 264.559 322.637 264.559 320.494C264.559 318.375 264.745 316.482 265.119 314.812C265.493 313.118 266.066 311.697 266.839 310.551C267.636 309.405 268.633 308.533 269.829 307.934C271.05 307.311 272.483 307 274.127 307C275.772 307 277.192 307.311 278.388 307.934C279.61 308.533 280.606 309.405 281.379 310.551C282.176 311.697 282.762 313.118 283.136 314.812C283.509 316.482 283.696 318.375 283.696 320.494C283.696 322.637 283.509 324.543 283.136 326.212C282.762 327.882 282.176 329.29 281.379 330.436C280.606 331.582 279.61 332.467 278.388 333.09C277.192 333.688 275.772 333.987 274.127 333.987ZM274.127 330.548C276.021 330.548 277.367 329.851 278.164 328.455C278.987 327.035 279.398 325.128 279.398 322.736V318.251C279.398 315.859 278.987 313.965 278.164 312.569C277.367 311.149 276.021 310.439 274.127 310.439C273.18 310.439 272.371 310.626 271.698 310.999C271.025 311.348 270.477 311.872 270.053 312.569C269.63 313.242 269.318 314.064 269.119 315.036C268.944 315.983 268.857 317.055 268.857 318.251V322.736C268.857 323.932 268.944 325.016 269.119 325.988C269.318 326.935 269.63 327.757 270.053 328.455C270.477 329.128 271.025 329.651 271.698 330.025C272.371 330.374 273.18 330.548 274.127 330.548Z" fill="white"/>
<path d="M297.698 322.176C298.047 322.524 298.658 322.699 299.53 322.699C300.402 322.699 301 322.524 301.324 322.176C301.673 321.827 301.847 321.403 301.847 320.905V320.082C301.847 319.584 301.673 319.16 301.324 318.812C301 318.463 300.402 318.288 299.53 318.288C298.658 318.288 298.047 318.463 297.698 318.812C297.374 319.16 297.213 319.584 297.213 320.082V320.905C297.213 321.403 297.374 321.827 297.698 322.176Z" fill="white"/>
<path fill-rule="evenodd" clip-rule="evenodd" d="M295.231 333.09C296.452 333.688 297.885 333.987 299.53 333.987C301.175 333.987 302.595 333.688 303.791 333.09C305.012 332.467 306.009 331.582 306.781 330.436C307.579 329.29 308.164 327.882 308.538 326.212C308.912 324.543 309.099 322.637 309.099 320.494C309.099 318.375 308.912 316.482 308.538 314.812C308.164 313.118 307.579 311.697 306.781 310.551C306.009 309.405 305.012 308.533 303.791 307.934C302.595 307.311 301.175 307 299.53 307C297.885 307 296.452 307.311 295.231 307.934C294.035 308.533 293.039 309.405 292.241 310.551C291.469 311.697 290.896 313.118 290.522 314.812C290.148 316.482 289.961 318.375 289.961 320.494C289.961 322.637 290.148 324.543 290.522 326.212C290.896 327.882 291.469 329.29 292.241 330.436C293.039 331.582 294.035 332.467 295.231 333.09ZM303.567 328.455C302.769 329.851 301.424 330.548 299.53 330.548C298.583 330.548 297.773 330.374 297.1 330.025C296.428 329.651 295.879 329.128 295.456 328.455C295.032 327.757 294.721 326.935 294.521 325.988C294.347 325.016 294.26 323.932 294.26 322.736V318.251C294.26 317.055 294.347 315.983 294.521 315.036C294.721 314.064 295.032 313.242 295.456 312.569C295.879 311.872 296.428 311.348 297.1 310.999C297.773 310.626 298.583 310.439 299.53 310.439C301.424 310.439 302.769 311.149 303.567 312.569C304.389 313.965 304.8 315.859 304.8 318.251V322.736C304.8 325.128 304.389 327.035 303.567 328.455Z" fill="white"/>
<path d="M317.008 333.539V330.062H324.335V310.514H324.036L317.98 316.98L315.401 314.663L322.054 307.449H328.521V330.062H334.838V333.539H317.008Z" fill="white"/>
<path d="M342.411 330.062V333.539H360.24V330.062H353.924V307.449H347.457L340.804 314.663L343.383 316.98L349.438 310.514H349.737V330.062H342.411Z" fill="white"/>
<path d="M272.296 362.176C272.645 362.524 273.255 362.699 274.127 362.699C275 362.699 275.598 362.524 275.922 362.176C276.27 361.827 276.445 361.403 276.445 360.905V360.082C276.445 359.584 276.27 359.16 275.922 358.812C275.598 358.463 275 358.288 274.127 358.288C273.255 358.288 272.645 358.463 272.296 358.812C271.972 359.16 271.81 359.584 271.81 360.082V360.905C271.81 361.403 271.972 361.827 272.296 362.176Z" fill="white"/>
<path d="M291.606 373.539V370.062H298.932V350.514H298.633L292.578 356.98L289.999 354.663L296.652 347.449H303.118V370.062H309.435V373.539H291.606Z" fill="white"/>
<path d="M300 120V70M300 528V478M394.5 138.981L419.5 95.6802M180.5 502.32L205.5 459.019M208.67 137.151L183.67 93.8501M416.33 504.15L391.33 460.849M164.892 156.304L129.537 120.949M470.463 477.051L435.107 441.696M442.695 163.893L478.051 128.537M121.948 469.463L157.304 434.107M253.671 126.099L240.73 77.803M359.269 520.197L346.328 471.901M346.329 126.099L359.27 77.8031M240.73 520.197L253.671 471.901M45 137.037C54.5594 128.681 64.7903 120.724 75.6221 113.238M45 461.462C54.5594 469.818 64.7903 477.775 75.6221 485.261M555 461.777C545.544 470.018 535.435 477.869 524.739 485.261M555 136.722C545.544 128.481 535.435 120.618 524.739 113.207M75.6221 113.238C85.3608 106.507 95.5852 100.157 106.244 94.2412M75.6221 113.238V44M106.244 94.2412C116.094 88.774 126.315 83.677 136.866 78.9917M106.244 94.2412V44M136.866 78.9917C146.792 74.5843 157.01 70.5411 167.486 66.8967M136.866 78.9917V44M167.486 66.8967C177.468 63.4243 187.686 60.314 198.108 57.5955M167.486 66.8967V44M198.108 57.5955C230.442 49.1622 264.756 44 300.181 44C335.605 44 369.919 48.7244 402.253 57.2381M198.108 57.5955V44M402.253 57.2381C412.675 59.9824 422.892 63.1205 432.874 66.621M402.253 57.2381V44M432.874 66.621C443.351 70.2953 453.57 74.3689 463.496 78.8056M432.874 66.621V44M463.496 78.8056C474.047 83.5217 484.268 88.6482 494.118 94.1414M463.496 78.8056V44M494.118 94.1414C504.777 100.086 515.001 106.459 524.739 113.207M494.118 94.1414V44M524.739 113.207V44M524.739 485.261C515.001 491.992 504.777 498.341 494.118 504.257M524.739 485.261V554M494.118 504.257C484.268 509.724 474.047 514.821 463.496 519.507M494.118 504.257V554M463.496 519.507C453.57 523.915 443.351 527.958 432.874 531.603M463.496 519.507V554M432.874 531.603C422.892 535.075 412.675 538.185 402.253 540.904M432.874 531.603V554M402.253 540.904C369.919 549.337 335.605 553.999 300.18 553.999C264.756 553.999 230.442 549.337 198.108 540.904M402.253 540.904V554M198.108 540.904V554M198.108 540.904C187.686 538.185 177.468 535.075 167.486 531.602M198.108 554H167.486M198.108 554H402.253M167.486 531.602V554M167.486 531.602C157.01 527.958 146.792 523.915 136.866 519.507M167.486 554H136.866M136.866 519.507V554M136.866 519.507C126.315 514.822 116.094 509.725 106.244 504.258M136.866 554H106.244M106.244 554H75.6221M106.244 554V504.258M75.6221 554H45V44H75.6221M75.6221 554V485.261M75.6221 485.261C85.3608 491.992 95.5852 498.342 106.244 504.258M402.253 554H432.874M432.874 554H463.496M463.496 554H494.118M494.118 554H524.739M524.739 554H555V44H524.739M524.739 44H494.118M494.118 44H463.496M463.496 44H432.874M432.874 44H402.253M402.253 44L198.108 44M198.108 44H167.486M167.486 44H136.866M136.866 44L106.244 44M106.244 44H75.6221M505 299.5C505 223.25 411.657 147 300 147C188.343 147 95 223.25 95 299.5C95 375.75 188.343 452 300 452C411.657 452 505 375.75 505 299.5ZM375 299C375 340.421 341.421 374 300 374C258.579 374 225 340.421 225 299C225 257.579 258.579 224 300 224C341.421 224 375 257.579 375 299Z" stroke="#0A0A0A" stroke-width="4" stroke-linecap="round" stroke-linejoin="round"/>
</svg>
