<svg width="64" height="80" viewBox="0 0 64 80" fill="none" xmlns="http://www.w3.org/2000/svg">
<path d="M34.5283 80C29.3268 80 24.6382 79.1874 20.4624 77.5623C16.2866 75.8633 12.7334 73.3887 9.80303 70.1385C6.87263 66.8144 4.60157 62.7147 2.98985 57.8393C1.37813 52.8901 0.572266 47.1283 0.572266 40.554C0.572266 34.0536 1.37813 28.2918 2.98985 23.2687C4.60157 18.1717 6.87263 13.9243 9.80303 10.5263C12.7334 7.05448 16.2866 4.43213 20.4624 2.65928C24.6382 0.886425 29.3268 0 34.5283 0C41.6345 0 47.4953 1.47738 52.1107 4.43214C56.7261 7.31302 60.4257 11.8929 63.2096 18.1717L48.814 25.7064C47.7884 22.4561 46.1767 19.8707 43.9789 17.9501C41.8543 15.9557 38.7041 14.9584 34.5283 14.9584C29.6199 14.9584 25.6638 16.5836 22.6602 19.8338C19.7298 23.0102 18.2646 27.6639 18.2646 33.795V46.205C18.2646 52.3361 19.7298 57.0268 22.6602 60.277C25.6638 63.4534 29.6199 65.0415 34.5283 65.0415C38.6309 65.0415 41.8909 63.9335 44.3085 61.7174C46.7994 59.4275 48.6309 56.6944 49.803 53.518L63.4294 61.4958C60.5723 67.4053 56.7994 71.9852 52.1107 75.2355C47.4953 78.4118 41.6345 80 34.5283 80Z" fill="white"/>
<path d="M34.5283 80C29.3268 80 24.6382 79.1874 20.4624 77.5623C16.2866 75.8633 12.7334 73.3887 9.80303 70.1385C6.87263 66.8144 4.60157 62.7147 2.98985 57.8393C1.37813 52.8901 0.572266 47.1283 0.572266 40.554C0.572266 34.0536 1.37813 28.2918 2.98985 23.2687C4.60157 18.1717 6.87263 13.9243 9.80303 10.5263C12.7334 7.05448 16.2866 4.43213 20.4624 2.65928C24.6382 0.886425 29.3268 0 34.5283 0C41.6345 0 47.4953 1.47738 52.1107 4.43214C56.7261 7.31302 60.4257 11.8929 63.2096 18.1717L48.814 25.7064C47.7884 22.4561 46.1767 19.8707 43.9789 17.9501C41.8543 15.9557 38.7041 14.9584 34.5283 14.9584C29.6199 14.9584 25.6638 16.5836 22.6602 19.8338C19.7298 23.0102 18.2646 27.6639 18.2646 33.795V46.205C18.2646 52.3361 19.7298 57.0268 22.6602 60.277C25.6638 63.4534 29.6199 65.0415 34.5283 65.0415C38.6309 65.0415 41.8909 63.9335 44.3085 61.7174C46.7994 59.4275 48.6309 56.6944 49.803 53.518L63.4294 61.4958C60.5723 67.4053 56.7994 71.9852 52.1107 75.2355C47.4953 78.4118 41.6345 80 34.5283 80Z" fill="url(#paint0_linear_6285_104426)"/>
<defs>
<linearGradient id="paint0_linear_6285_104426" x1="32.0008" y1="28.5" x2="32.0008" y2="80" gradientUnits="userSpaceOnUse">
<stop stop-color="#121727" stop-opacity="0"/>
<stop offset="1" stop-color="#121727" stop-opacity="0.25"/>
</linearGradient>
</defs>
</svg>
