<?xml version="1.0" encoding="UTF-8"?>
<svg width="37" height="30" viewBox="0 0 36 40" version="1.1" xmlns="http://www.w3.org/2000/svg" xmlns:xlink="http://www.w3.org/1999/xlink">
    <g id="Page-1" stroke="none" stroke-width="1" fill="none" fill-rule="evenodd">
        <g id="arrow" fill="#808080" fill-rule="nonzero">
            <path d="M0.5,36 L0,36 L0,36.5 L0.5,36.5 L0.5,36 Z M25.8536,36.3536 C26.0488,36.1583 26.0488,35.8417 25.8536,35.6464 L22.6716,32.4645 C22.4763,32.2692 22.1597,32.2692 21.9645,32.4645 C21.7692,32.6597 21.7692,32.9763 21.9645,33.1716 L24.7929,36 L21.9645,38.8284 C21.7692,39.0237 21.7692,39.3403 21.9645,39.5355 C22.1597,39.7308 22.4763,39.7308 22.6716,39.5355 L25.8536,36.3536 Z M0,0 L0,36 L1,36 L1,0 L0,0 Z M0.5,36.5 L25.5,36.5 L25.5,35.5 L0.5,35.5 L0.5,36.5 Z" id="Shape"></path>
        </g>
    </g>
</svg>
