<svg viewBox="0 0 617 535" fill="none" xmlns="http://www.w3.org/2000/svg">
<path fill-rule="evenodd" clip-rule="evenodd" d="M243 209C237.477 209 233 213.477 233 219V279C233 284.523 237.477 289 243 289C237.477 289 233 293.477 233 299V359C233 364.523 237.477 369 243 369C237.477 369 233 373.477 233 379V439C233 444.523 237.477 449 243 449H373C378.523 449 383 444.523 383 439V379C383 373.477 378.523 369 373 369C378.523 369 383 364.523 383 359V299C383 293.477 378.523 289 373 289C378.523 289 383 284.523 383 279V219C383 213.477 378.523 209 373 209H243ZM288 249C288 244.582 291.582 241 296 241H355C359.418 241 363 244.582 363 249C363 253.418 359.418 257 355 257H296C291.582 257 288 253.418 288 249ZM288 329C288 324.582 291.582 321 296 321H355C359.418 321 363 324.582 363 329C363 333.418 359.418 337 355 337H296C291.582 337 288 333.418 288 329ZM296 401C291.582 401 288 404.582 288 409C288 413.418 291.582 417 296 417H355C359.418 417 363 413.418 363 409C363 404.582 359.418 401 355 401H296Z" fill="#7E57C2"/>
<path d="M243 289H373M243 289C237.477 289 233 284.523 233 279V219C233 213.477 237.477 209 243 209H373C378.523 209 383 213.477 383 219V279C383 284.523 378.523 289 373 289M243 289C237.477 289 233 293.477 233 299V359C233 364.523 237.477 369 243 369M373 289C378.523 289 383 293.477 383 299V359C383 364.523 378.523 369 373 369M243 369H373M243 369C237.477 369 233 373.477 233 379V439C233 444.523 237.477 449 243 449H373C378.523 449 383 444.523 383 439V379C383 373.477 378.523 369 373 369M326 515C326 524.941 317.941 533 308 533C298.059 533 290 524.941 290 515M326 515C326 505.059 317.941 497 308 497M326 515H370M290 515C290 505.059 298.059 497 308 497M290 515L190 515M308 497V449M123 515L169 515M106.5 515L73 515M547.5 515L514 515M57.5 515L40 515M576 515H559M498.5 515L391 515M177.001 78.5696C177.001 78.5696 186.86 54.9867 218.426 29.9903C226.686 23.4492 235.418 18.461 243.809 14.6608M288.446 2.67456C288.446 2.67456 277.986 3.3054 263.5 7.45491M550.096 24.0001C550.096 24.0001 572.608 39.1824 594.19 73.1751C595.254 74.8512 596.261 76.5311 597.215 78.2104M614 142.728C614 142.728 615.02 122.24 606.074 97.5001M2 173.511C2 173.511 2.42585 167.552 4.34052 159.5M38.1283 112C38.1283 112 25.0975 118.217 14.3389 134.808C13.311 136.393 12.3669 138.029 11.5 139.691M365.375 67.0001C301.599 67.0001 245.923 101.641 216.185 153.11C203.492 146.892 189.217 143.4 174.125 143.4C158.809 143.4 144.334 146.996 131.5 153.389M365.375 67.0001C285.077 67.0001 217.62 121.913 198.604 196.189M365.375 67.0001C401.626 67.0001 435.259 78.1919 463 97.3043M167.348 449L116.75 449C73.5774 449 35.9734 425.189 16.3862 390M468.543 449L517 449M470.18 270.998C484.331 262.735 500.799 258 518.375 258C537.39 258 555.109 263.543 570 273.099C559.895 266.614 548.488 261.978 536.257 259.667C537.078 252.859 537.5 245.929 537.5 238.9C537.5 187.688 515.077 141.707 479.5 110.215M101.949 301.548C87.3432 284.779 78.5 262.871 78.5 238.9C78.5 208.907 92.3447 182.143 114 164.635C95.4984 179.594 82.6981 201.308 79.3623 226.021C34.3438 241.507 2 284.181 2 334.4C2 347.013 4.04031 359.15 7.80931 370.5M386.35 166.946C386.35 166.946 404.259 173.333 417.5 188C418.403 189 419.27 190.002 420.103 191M436.414 217.697C436.414 217.697 435.021 214.007 432.006 208.5M586.517 286.5C603.513 303.739 614 327.396 614 353.5C614 399.548 581.367 437.984 537.937 447M296 257H355C359.418 257 363 253.418 363 249C363 244.582 359.418 241 355 241H296C291.582 241 288 244.582 288 249C288 253.418 291.582 257 296 257ZM296 337H355C359.418 337 363 333.418 363 329C363 324.582 359.418 321 355 321H296C291.582 321 288 324.582 288 329C288 333.418 291.582 337 296 337ZM296 417H355C359.418 417 363 413.418 363 409C363 404.582 359.418 401 355 401H296C291.582 401 288 404.582 288 409C288 413.418 291.582 417 296 417Z" stroke="white" stroke-width="4" stroke-linecap="round" stroke-linejoin="round"/>
<path d="M14 380.5C14 381.881 12.8807 383 11.5 383C10.1193 383 9 381.881 9 380.5C9 379.119 10.1193 378 11.5 378C12.8807 378 14 379.119 14 380.5Z" fill="white"/>
<path d="M125 158.5C125 159.881 123.881 161 122.5 161C121.119 161 120 159.881 120 158.5C120 157.119 121.119 156 122.5 156C123.881 156 125 157.119 125 158.5Z" fill="white"/>
<path d="M474 103.5C474 104.881 472.881 106 471.5 106C470.119 106 469 104.881 469 103.5C469 102.119 470.119 101 471.5 101C472.881 101 474 102.119 474 103.5Z" fill="white"/>
<path d="M581 279.5C581 280.881 579.881 282 578.5 282C577.119 282 576 280.881 576 279.5C576 278.119 577.119 277 578.5 277C579.881 277 581 278.119 581 279.5Z" fill="white"/>
<path d="M429 199.5C429 200.881 427.881 202 426.5 202C425.119 202 424 200.881 424 199.5C424 198.119 425.119 197 426.5 197C427.881 197 429 198.119 429 199.5Z" fill="white"/>
<path d="M383 515.5C383 516.881 381.881 518 380.5 518C379.119 518 378 516.881 378 515.5C378 514.119 379.119 513 380.5 513C381.881 513 383 514.119 383 515.5Z" fill="white"/>
<path d="M91 515.5C91 516.881 89.8807 518 88.5 518C87.1193 518 86 516.881 86 515.5C86 514.119 87.1193 513 88.5 513C89.8807 513 91 514.119 91 515.5Z" fill="white"/>
<path d="M530 448.5C530 449.881 528.881 451 527.5 451C526.119 451 525 449.881 525 448.5C525 447.119 526.119 446 527.5 446C528.881 446 530 447.119 530 448.5Z" fill="white"/>
<path d="M605 87.5C605 88.8807 603.881 90 602.5 90C601.119 90 600 88.8807 600 87.5C600 86.1193 601.119 85 602.5 85C603.881 85 605 86.1193 605 87.5Z" fill="white"/>
<path d="M256 10.5C256 11.8807 254.881 13 253.5 13C252.119 13 251 11.8807 251 10.5C251 9.11929 252.119 8 253.5 8C254.881 8 256 9.11929 256 10.5Z" fill="white"/>
<path d="M10 149.5C10 150.881 8.88071 152 7.5 152C6.11929 152 5 150.881 5 149.5C5 148.119 6.11929 147 7.5 147C8.88071 147 10 148.119 10 149.5Z" fill="white"/>
</svg>
