<?xml version="1.0" standalone="no"?>
<!DOCTYPE svg PUBLIC "-//W3C//DTD SVG 20010904//EN"
 "http://www.w3.org/TR/2001/REC-SVG-20010904/DTD/svg10.dtd">
<svg version="1.0" xmlns="http://www.w3.org/2000/svg"
 width="1200.000000pt" height="1200.000000pt" viewBox="0 0 1200.000000 1200.000000"
 preserveAspectRatio="xMidYMid meet">
<metadata>
Created by potrace 1.11, written by Peter Selinger 2001-2013
</metadata>
<g transform="translate(0.000000,1200.000000) scale(0.100000,-0.100000)"
fill="#000000" stroke="none">
<path d="M2000 11400 l0 -600 -367 -1 c-203 0 -388 -2 -413 -4 -66 -5 -143
-15 -160 -20 -8 -2 -28 -6 -43 -9 -87 -15 -259 -77 -357 -130 -355 -189 -583
-496 -648 -871 -9 -54 -9 -8666 0 -8731 41 -283 218 -567 471 -755 81 -60 230
-149 251 -149 7 0 16 -4 21 -9 23 -21 173 -67 355 -108 19 -4 2204 -8 4855
-10 4898 -2 4904 -2 5012 31 10 3 31 7 47 10 101 18 324 117 441 197 282 192
457 454 520 779 12 65 14 651 12 4415 l-2 4340 -27 92 c-15 50 -39 120 -53
155 -27 67 -103 201 -117 206 -4 2 -8 8 -8 14 0 23 -128 161 -220 239 -150
126 -407 252 -575 282 -191 35 -194 35 -622 36 l-373 1 0 600 0 600 -664 0
c-522 0 -665 -3 -668 -12 -2 -7 -3 -277 -3 -600 l1 -588 -2666 0 -2666 0 0
598 0 597 -667 3 -667 2 0 -600z m8666 -6897 l-1 -3298 -4666 -3 -4665 -2 0
3300 0 3300 4666 0 4666 0 0 -3297z"/>
<path d="M3585 6979 c-334 -74 -579 -373 -580 -709 0 -143 9 -196 54 -308 89
-224 324 -413 560 -450 50 -8 208 -8 256 0 198 34 359 135 482 302 98 133 145
288 139 456 -5 134 -20 198 -72 305 -100 207 -289 355 -528 412 -58 14 -235 9
-311 -8z"/>
<path d="M8169 6996 c-2 -2 -24 -6 -49 -9 -161 -20 -339 -128 -458 -276 -43
-53 -104 -157 -107 -181 0 -3 -3 -9 -7 -15 -3 -5 -14 -41 -24 -80 -25 -94 -24
-284 0 -375 84 -311 356 -534 678 -556 336 -23 646 183 756 502 30 87 33 106
37 225 7 220 -70 407 -233 564 -82 80 -212 152 -327 181 -16 4 -37 9 -45 11
-23 6 -216 14 -221 9z"/>
<path d="M7539 3723 c-64 -82 -202 -222 -289 -294 -253 -211 -605 -363 -935
-404 -27 -4 -61 -9 -75 -11 -62 -13 -451 -11 -560 2 -287 35 -544 121 -750
253 -159 102 -337 270 -453 426 -33 44 -62 80 -66 80 -6 0 -162 -104 -401
-268 -69 -47 -189 -129 -268 -183 -79 -54 -145 -101 -147 -105 -8 -12 145
-212 250 -327 267 -293 570 -511 920 -661 88 -38 283 -107 325 -116 8 -2 44
-11 80 -20 65 -17 83 -21 130 -30 14 -2 50 -9 80 -15 175 -34 318 -45 580 -45
191 0 327 7 424 20 383 52 687 143 981 293 39 19 84 42 100 50 50 25 306 196
371 248 172 138 376 343 489 488 17 22 41 52 54 69 20 24 22 31 10 37 -8 5
-186 137 -395 294 -210 157 -386 286 -392 286 -6 0 -34 -30 -63 -67z"/>
</g>
</svg>
