<svg viewBox="0 0 492 401" fill="none" xmlns="http://www.w3.org/2000/svg">
<path fill-rule="evenodd" clip-rule="evenodd" d="M197.348 156.262C193.204 156.262 189.844 159.609 189.844 163.738V208.598C189.844 212.727 193.204 216.075 197.348 216.075C193.204 216.075 189.844 219.422 189.844 223.551V268.411C189.844 272.54 193.204 275.888 197.348 275.888C193.204 275.888 189.844 279.235 189.844 283.364V328.224C189.844 332.354 193.204 335.701 197.348 335.701H294.901C299.045 335.701 302.405 332.354 302.405 328.224V283.364C302.405 279.235 299.045 275.888 294.901 275.888C299.045 275.888 302.405 272.54 302.405 268.411V223.551C302.405 219.422 299.045 216.075 294.901 216.075C299.045 216.075 302.405 212.727 302.405 208.598V163.738C302.405 159.609 299.045 156.262 294.901 156.262H197.348ZM231.117 186.168C231.117 182.865 233.804 180.187 237.12 180.187H281.394C284.709 180.187 287.397 182.865 287.397 186.168C287.397 189.472 284.709 192.15 281.394 192.15H237.12C233.804 192.15 231.117 189.472 231.117 186.168ZM231.117 245.981C231.117 242.678 233.804 240 237.12 240H281.394C284.709 240 287.397 242.678 287.397 245.981C287.397 249.285 284.709 251.963 281.394 251.963H237.12C233.804 251.963 231.117 249.285 231.117 245.981ZM237.12 299.813C233.804 299.813 231.117 302.491 231.117 305.794C231.117 309.098 233.804 311.776 237.12 311.776H281.394C284.709 311.776 287.397 309.098 287.397 305.794C287.397 302.491 284.709 299.813 281.394 299.813H237.12Z" fill="#7E57C2"/>
<path d="M197.349 216.075H294.901M197.349 216.075C193.204 216.075 189.845 212.727 189.845 208.598V163.738C189.845 159.609 193.204 156.262 197.349 156.262H294.901C299.046 156.262 302.405 159.609 302.405 163.738V208.598C302.405 212.727 299.046 216.075 294.901 216.075M197.349 216.075C193.204 216.075 189.845 219.422 189.845 223.551V268.411C189.845 272.54 193.204 275.888 197.349 275.888M294.901 216.075C299.046 216.075 302.405 219.422 302.405 223.551V268.411C302.405 272.54 299.046 275.888 294.901 275.888M197.349 275.888H294.901M197.349 275.888C193.204 275.888 189.845 279.235 189.845 283.364V328.224C189.845 332.354 193.204 335.701 197.349 335.701H294.901C299.046 335.701 302.405 332.354 302.405 328.224V283.364C302.405 279.235 299.046 275.888 294.901 275.888M259.632 385.047C259.632 392.479 253.585 398.505 246.125 398.505C238.665 398.505 232.618 392.479 232.618 385.047M259.632 385.047C259.632 377.614 253.585 371.589 246.125 371.589M259.632 385.047H292.65M232.618 385.047C232.618 377.614 238.665 371.589 246.125 371.589M232.618 385.047L157.577 385.047M246.125 371.589V335.701M107.3 385.047L141.819 385.047M94.9183 385.047L69.7797 385.047M425.847 385.047L400.708 385.047M58.1485 385.047L45.0164 385.047M447.234 385.047H434.477M389.077 385.047L308.409 385.047M147.822 58.7436C147.822 58.7436 155.221 41.1115 178.908 22.4226C185.107 17.532 191.659 13.8025 197.956 10.9612M231.451 1.99957C231.451 1.99957 223.603 2.47123 212.732 5.57367M427.795 17.9439C427.795 17.9439 444.688 29.2952 460.883 54.7103C461.682 55.9634 462.437 57.2194 463.153 58.475M475.749 106.712C475.749 106.712 476.514 91.3939 469.801 72.8972M16.501 129.727C16.501 129.727 16.8205 125.272 18.2573 119.252M43.6118 83.7383C43.6118 83.7383 33.8335 88.3867 25.7601 100.791C24.9888 101.976 24.2804 103.199 23.6298 104.442M289.18 50.0934C241.321 50.0934 199.542 75.993 177.226 114.475C167.702 109.825 156.989 107.215 145.665 107.215C134.171 107.215 123.309 109.904 113.678 114.683M289.18 50.0934C228.923 50.0934 178.304 91.15 164.034 146.683M289.18 50.0934C316.382 50.0934 341.621 58.4611 362.438 72.7508M140.579 335.701L102.61 335.701C70.2131 335.701 41.9948 317.899 27.2964 291.589M366.597 335.701L402.96 335.701M367.825 202.616C378.445 196.438 390.802 192.897 403.991 192.897C418.26 192.897 431.557 197.041 442.731 204.186C435.148 199.338 426.588 195.871 417.41 194.143C418.026 189.053 418.343 183.872 418.343 178.617C418.343 140.328 401.516 105.949 374.819 82.4037M91.5033 225.456C80.5429 212.919 73.907 196.539 73.907 178.617C73.907 156.192 84.2961 136.182 100.546 123.092C86.6626 134.275 77.0572 150.511 74.554 168.987C40.7719 180.566 16.501 212.472 16.501 250.019C16.501 259.449 18.032 268.523 20.8603 277.009M304.919 124.819C304.919 124.819 318.358 129.595 328.294 140.561C328.972 141.308 329.623 142.057 330.248 142.804M342.487 162.764C342.487 162.764 341.442 160.005 339.179 155.888M455.126 214.206C467.88 227.094 475.749 244.782 475.749 264.299C475.749 298.727 451.261 327.464 418.671 334.206M237.12 192.15H281.394C284.709 192.15 287.397 189.472 287.397 186.168C287.397 182.865 284.709 180.187 281.394 180.187H237.12C233.805 180.187 231.117 182.865 231.117 186.168C231.117 189.472 233.805 192.15 237.12 192.15ZM237.12 251.963H281.394C284.709 251.963 287.397 249.285 287.397 245.981C287.397 242.678 284.709 240 281.394 240H237.12C233.805 240 231.117 242.678 231.117 245.981C231.117 249.285 233.805 251.963 237.12 251.963ZM237.12 311.776H281.394C284.709 311.776 287.397 309.098 287.397 305.794C287.397 302.491 284.709 299.813 281.394 299.813H237.12C233.805 299.813 231.117 302.491 231.117 305.794C231.117 309.098 233.805 311.776 237.12 311.776Z" stroke="white" stroke-width="3" stroke-linecap="round" stroke-linejoin="round"/>
<path d="M25.5056 284.486C25.5056 285.518 24.6657 286.355 23.6296 286.355C22.5935 286.355 21.7536 285.518 21.7536 284.486C21.7536 283.454 22.5935 282.617 23.6296 282.617C24.6657 282.617 25.5056 283.454 25.5056 284.486Z" fill="white"/>
<path d="M108.801 118.505C108.801 119.537 107.961 120.374 106.925 120.374C105.888 120.374 105.049 119.537 105.049 118.505C105.049 117.472 105.888 116.636 106.925 116.636C107.961 116.636 108.801 117.472 108.801 118.505Z" fill="white"/>
<path d="M370.692 77.3832C370.692 78.4155 369.852 79.2523 368.816 79.2523C367.78 79.2523 366.94 78.4155 366.94 77.3832C366.94 76.3509 367.78 75.514 368.816 75.514C369.852 75.514 370.692 76.3509 370.692 77.3832Z" fill="white"/>
<path d="M450.985 208.972C450.985 210.004 450.145 210.841 449.109 210.841C448.073 210.841 447.233 210.004 447.233 208.972C447.233 207.94 448.073 207.103 449.109 207.103C450.145 207.103 450.985 207.94 450.985 208.972Z" fill="white"/>
<path d="M336.924 149.159C336.924 150.191 336.084 151.028 335.048 151.028C334.012 151.028 333.172 150.191 333.172 149.159C333.172 148.127 334.012 147.29 335.048 147.29C336.084 147.29 336.924 148.127 336.924 149.159Z" fill="white"/>
<path d="M302.405 385.421C302.405 386.453 301.565 387.29 300.529 387.29C299.493 387.29 298.653 386.453 298.653 385.421C298.653 384.388 299.493 383.551 300.529 383.551C301.565 383.551 302.405 384.388 302.405 385.421Z" fill="white"/>
<path d="M83.2868 385.421C83.2868 386.453 82.4469 387.29 81.4108 387.29C80.3747 387.29 79.5348 386.453 79.5348 385.421C79.5348 384.388 80.3747 383.551 81.4108 383.551C82.4469 383.551 83.2868 384.388 83.2868 385.421Z" fill="white"/>
<path d="M412.715 335.327C412.715 336.359 411.875 337.196 410.839 337.196C409.803 337.196 408.963 336.359 408.963 335.327C408.963 334.295 409.803 333.458 410.839 333.458C411.875 333.458 412.715 334.295 412.715 335.327Z" fill="white"/>
<path d="M468.995 65.4206C468.995 66.4529 468.155 67.2897 467.119 67.2897C466.083 67.2897 465.243 66.4529 465.243 65.4206C465.243 64.3882 466.083 63.5514 467.119 63.5514C468.155 63.5514 468.995 64.3882 468.995 65.4206Z" fill="white"/>
<path d="M207.104 7.85047C207.104 8.88277 206.264 9.71963 205.228 9.71963C204.192 9.71963 203.352 8.88277 203.352 7.85047C203.352 6.81816 204.192 5.98131 205.228 5.98131C206.264 5.98131 207.104 6.81816 207.104 7.85047Z" fill="white"/>
<path d="M22.504 111.776C22.504 112.808 21.6641 113.645 20.628 113.645C19.5919 113.645 18.752 112.808 18.752 111.776C18.752 110.743 19.5919 109.907 20.628 109.907C21.6641 109.907 22.504 110.743 22.504 111.776Z" fill="white"/>
</svg>
